# xmcd
#
# Track frame offsets:
#	150
#	22205
#	39060
#	57600
#	77502
#	99024
#	119186
#	143838
#	162446
#	182025
#	200617
#	220458
#	238778
#	260918
#	281509
#
# Disc length: 4038 seconds
#
# Revision: 0
# Processed by: cddbd v1.5.2PL0 Copyright (c) Steve Scherf et al.
# Submitted via: EasyCDDAExtractor 16.0.8.2
#
DISCID=e30fc40f
DTITLE=Various Artist - אוהבים שמונים
DYEAR=2014
DGENRE=
TTITLE0=Abba - The Winner Takes It All
TTITLE1=Duran Duran - Save a Prayer
TTITLE2=Roxette - It Must Have Been Love
TTITLE3=Bryan Ferry - Slave To Love
TTITLE4=Foreigner - Waiting For a Girl Like You
TTITLE5=Bonnie Tyler - Total Eclipse Of The Heart
TTITLE6=Spandau Ballet - True
TTITLE7=Gazebo - I Like Chopin
TTITLE8=Toto - Africa
TTITLE9=Michael Jackson - Human Nature
TTITLE10=Lionel Richie and Diana Ross - Endless Love
TTITLE11=Jim Diamond - I Should Have Known Better
TTITLE12=Sam Brown - Stop
TTITLE13=Nik Kershaw - Wouldn't It Be Good
TTITLE14=Hazel O'connor - Will You?
EXTD=
EXTT0=
EXTT1=
EXTT2=
EXTT3=
EXTT4=
EXTT5=
EXTT6=
EXTT7=
EXTT8=
EXTT9=
EXTT10=
EXTT11=
EXTT12=
EXTT13=
EXTT14=
PLAYORDER=
